<?xml version="1.0" standalone="no"?>
<svg viewBox="0 0 200 200" xmlns="http://www.w3.org/2000/svg">
  <path fill="#F0A9C9" d="M39.3,-65.7C49.4,-62.2,55,-48.6,62.2,-35.9C69.4,-23.3,78.2,-11.7,79.6,0.8C80.9,13.2,74.9,26.5,68.6,40.7C62.3,55,55.8,70.2,44.4,73.8C32.9,77.4,16.4,69.3,2.6,64.8C-11.2,60.3,-22.5,59.3,-29.7,53.3C-37,47.3,-40.3,36.2,-48.2,26.5C-56.1,16.8,-68.6,8.4,-70.2,-0.9C-71.8,-10.2,-62.5,-20.5,-54.4,-29.9C-46.4,-39.4,-39.6,-48.1,-30.7,-52.3C-21.8,-56.6,-10.9,-56.4,1.8,-59.6C14.6,-62.7,29.2,-69.2,39.3,-65.7Z" transform="translate(100 100)" />
</svg>
