<?xml version="1.0" standalone="no"?>
<svg viewBox="0 0 200 200" xmlns="http://www.w3.org/2000/svg">
  <path fill="#F0A9C9" d="M29.2,-50.6C35.8,-46.6,37.9,-34.9,46.2,-25.1C54.5,-15.4,69,-7.7,65,-2.3C61,3.1,38.6,6.2,32.5,19.7C26.4,33.3,36.6,57.2,33.9,63C31.2,68.9,15.6,56.6,4.6,48.6C-6.4,40.6,-12.8,36.9,-22.8,35.3C-32.9,33.7,-46.6,34.3,-57.7,28.8C-68.8,23.2,-77.2,11.6,-76.5,0.4C-75.8,-10.8,-66,-21.6,-57.3,-31.3C-48.6,-41,-41.1,-49.5,-31.7,-51.9C-22.3,-54.4,-11.2,-50.7,0,-50.8C11.2,-50.8,22.5,-54.6,29.2,-50.6Z" transform="translate(100 100)" />
</svg>
